<svg id="visual" viewBox="0 0 900 600" width="900" height="600" xmlns="http://www.w3.org/2000/svg" xmlns:xlink="http://www.w3.org/1999/xlink" version="1.1"><g stroke-width="1" stroke-linejoin="bevel"><path d="M436 331L472 390L500 338Z" fill="#0b3212" stroke="#0b3212"></path><path d="M436 331L420 422L472 390Z" fill="#12551e" stroke="#12551e"></path><path d="M486 524L574 423L472 390Z" fill="#104c1b" stroke="#104c1b"></path><path d="M472 390L574 423L500 338Z" fill="#156825" stroke="#156825"></path><path d="M621 271L493 207L500 338Z" fill="#197b2b" stroke="#197b2b"></path><path d="M500 338L493 207L436 331Z" fill="#104c1b" stroke="#104c1b"></path><path d="M271 311L305 375L436 331Z" fill="#104c1b" stroke="#104c1b"></path><path d="M436 331L305 375L420 422Z" fill="#197b2b" stroke="#197b2b"></path><path d="M364 525L486 524L420 422Z" fill="#12551e" stroke="#12551e"></path><path d="M420 422L486 524L472 390Z" fill="#135e21" stroke="#135e21"></path><path d="M574 423L621 271L500 338Z" fill="#12551e" stroke="#12551e"></path><path d="M486 524L607 471L574 423Z" fill="#12551e" stroke="#12551e"></path><path d="M574 423L701 331L621 271Z" fill="#177128" stroke="#177128"></path><path d="M380 161L271 311L436 331Z" fill="#135e21" stroke="#135e21"></path><path d="M270 465L420 422L305 375Z" fill="#092209" stroke="#092209"></path><path d="M270 465L364 525L420 422Z" fill="#12551e" stroke="#12551e"></path><path d="M493 207L380 161L436 331Z" fill="#0a2a0e" stroke="#0a2a0e"></path><path d="M621 271L618 197L493 207Z" fill="#135e21" stroke="#135e21"></path><path d="M493 207L435 106L380 161Z" fill="#104c1b" stroke="#104c1b"></path><path d="M204 480L270 465L174 436Z" fill="#0a2a0e" stroke="#0a2a0e"></path><path d="M607 471L690 413L574 423Z" fill="#104c1b" stroke="#104c1b"></path><path d="M621 271L727 171L618 197Z" fill="#0e4318" stroke="#0e4318"></path><path d="M618 197L522 127L493 207Z" fill="#0d3b15" stroke="#0d3b15"></path><path d="M690 413L701 331L574 423Z" fill="#135e21" stroke="#135e21"></path><path d="M264 72L300 168L380 161Z" fill="#0a2a0e" stroke="#0a2a0e"></path><path d="M380 161L300 168L271 311Z" fill="#177128" stroke="#177128"></path><path d="M522 127L435 106L493 207Z" fill="#12551e" stroke="#12551e"></path><path d="M362 600L515 600L486 524Z" fill="#0b3212" stroke="#0b3212"></path><path d="M486 524L515 600L607 471Z" fill="#197b2b" stroke="#197b2b"></path><path d="M607 471L711 522L690 413Z" fill="#177128" stroke="#177128"></path><path d="M298 600L362 600L364 525Z" fill="#177128" stroke="#177128"></path><path d="M364 525L362 600L486 524Z" fill="#0a2a0e" stroke="#0a2a0e"></path><path d="M300 168L208 260L271 311Z" fill="#12551e" stroke="#12551e"></path><path d="M174 436L270 465L305 375Z" fill="#177128" stroke="#177128"></path><path d="M515 600L615 600L607 471Z" fill="#12551e" stroke="#12551e"></path><path d="M174 436L305 375L271 311Z" fill="#104c1b" stroke="#104c1b"></path><path d="M270 465L298 600L364 525Z" fill="#0a2a0e" stroke="#0a2a0e"></path><path d="M615 600L711 522L607 471Z" fill="#0d3b15" stroke="#0d3b15"></path><path d="M690 413L768 334L701 331Z" fill="#0b3212" stroke="#0b3212"></path><path d="M224 600L298 600L270 465Z" fill="#092209" stroke="#092209"></path><path d="M674 130L637 104L618 197Z" fill="#135e21" stroke="#135e21"></path><path d="M618 197L637 104L522 127Z" fill="#0d3b15" stroke="#0d3b15"></path><path d="M522 127L487 0L435 106Z" fill="#0e4318" stroke="#0e4318"></path><path d="M800 368L768 334L690 413Z" fill="#0b3212" stroke="#0b3212"></path><path d="M727 171L674 130L618 197Z" fill="#0d3b15" stroke="#0d3b15"></path><path d="M127 288L174 436L271 311Z" fill="#135e21" stroke="#135e21"></path><path d="M727 171L621 271L701 331Z" fill="#0a2a0e" stroke="#0a2a0e"></path><path d="M792 193L727 171L701 331Z" fill="#197b2b" stroke="#197b2b"></path><path d="M264 72L222 137L300 168Z" fill="#104c1b" stroke="#104c1b"></path><path d="M300 168L190 175L208 260Z" fill="#12551e" stroke="#12551e"></path><path d="M208 260L127 288L271 311Z" fill="#135e21" stroke="#135e21"></path><path d="M222 137L190 175L300 168Z" fill="#092209" stroke="#092209"></path><path d="M615 600L689 600L711 522Z" fill="#0a2a0e" stroke="#0a2a0e"></path><path d="M839 499L800 368L690 413Z" fill="#0b3212" stroke="#0b3212"></path><path d="M839 499L690 413L711 522Z" fill="#197b2b" stroke="#197b2b"></path><path d="M768 334L792 193L701 331Z" fill="#197b2b" stroke="#197b2b"></path><path d="M113 183L127 288L208 260Z" fill="#0e4318" stroke="#0e4318"></path><path d="M204 480L224 600L270 465Z" fill="#0b3212" stroke="#0b3212"></path><path d="M112 600L224 600L204 480Z" fill="#12551e" stroke="#12551e"></path><path d="M119 434L204 480L174 436Z" fill="#177128" stroke="#177128"></path><path d="M331 0L264 72L380 161Z" fill="#156825" stroke="#156825"></path><path d="M90 118L113 183L190 175Z" fill="#135e21" stroke="#135e21"></path><path d="M331 0L380 161L435 106Z" fill="#0b3212" stroke="#0b3212"></path><path d="M596 0L487 0L522 127Z" fill="#092209" stroke="#092209"></path><path d="M127 288L119 434L174 436Z" fill="#135e21" stroke="#135e21"></path><path d="M487 0L383 0L435 106Z" fill="#12551e" stroke="#12551e"></path><path d="M662 0L596 0L637 104Z" fill="#0e4318" stroke="#0e4318"></path><path d="M637 104L596 0L522 127Z" fill="#156825" stroke="#156825"></path><path d="M782 0L662 0L674 130Z" fill="#177128" stroke="#177128"></path><path d="M900 313L792 193L768 334Z" fill="#177128" stroke="#177128"></path><path d="M662 0L637 104L674 130Z" fill="#0d3b15" stroke="#0d3b15"></path><path d="M383 0L331 0L435 106Z" fill="#092209" stroke="#092209"></path><path d="M190 175L113 183L208 260Z" fill="#0b3212" stroke="#0b3212"></path><path d="M0 389L85 509L119 434Z" fill="#135e21" stroke="#135e21"></path><path d="M90 118L190 175L222 137Z" fill="#12551e" stroke="#12551e"></path><path d="M90 118L222 137L165 0Z" fill="#12551e" stroke="#12551e"></path><path d="M815 600L839 499L711 522Z" fill="#0a2a0e" stroke="#0a2a0e"></path><path d="M800 368L900 313L768 334Z" fill="#0b3212" stroke="#0b3212"></path><path d="M835 65L674 130L727 171Z" fill="#0b3212" stroke="#0b3212"></path><path d="M0 337L119 434L127 288Z" fill="#0e4318" stroke="#0e4318"></path><path d="M119 434L85 509L204 480Z" fill="#135e21" stroke="#135e21"></path><path d="M689 600L815 600L711 522Z" fill="#0b3212" stroke="#0b3212"></path><path d="M85 509L112 600L204 480Z" fill="#0b3212" stroke="#0b3212"></path><path d="M900 432L800 368L839 499Z" fill="#0e4318" stroke="#0e4318"></path><path d="M900 432L900 313L800 368Z" fill="#104c1b" stroke="#104c1b"></path><path d="M792 193L835 65L727 171Z" fill="#135e21" stroke="#135e21"></path><path d="M900 482L900 432L839 499Z" fill="#156825" stroke="#156825"></path><path d="M165 0L222 137L264 72Z" fill="#177128" stroke="#177128"></path><path d="M0 207L0 337L127 288Z" fill="#135e21" stroke="#135e21"></path><path d="M900 600L900 482L839 499Z" fill="#104c1b" stroke="#104c1b"></path><path d="M331 0L165 0L264 72Z" fill="#135e21" stroke="#135e21"></path><path d="M0 207L127 288L113 183Z" fill="#0e4318" stroke="#0e4318"></path><path d="M85 509L0 600L112 600Z" fill="#0e4318" stroke="#0e4318"></path><path d="M0 337L0 389L119 434Z" fill="#0a2a0e" stroke="#0a2a0e"></path><path d="M900 133L835 65L792 193Z" fill="#0b3212" stroke="#0b3212"></path><path d="M900 313L900 167L792 193Z" fill="#092209" stroke="#092209"></path><path d="M835 65L782 0L674 130Z" fill="#0a2a0e" stroke="#0a2a0e"></path><path d="M165 0L133 0L90 118Z" fill="#156825" stroke="#156825"></path><path d="M90 118L0 207L113 183Z" fill="#177128" stroke="#177128"></path><path d="M900 167L900 133L792 193Z" fill="#197b2b" stroke="#197b2b"></path><path d="M835 65L900 0L782 0Z" fill="#156825" stroke="#156825"></path><path d="M0 93L0 207L90 118Z" fill="#092209" stroke="#092209"></path><path d="M0 389L0 506L85 509Z" fill="#135e21" stroke="#135e21"></path><path d="M815 600L900 600L839 499Z" fill="#092209" stroke="#092209"></path><path d="M0 506L0 600L85 509Z" fill="#0d3b15" stroke="#0d3b15"></path><path d="M0 0L0 93L90 118Z" fill="#135e21" stroke="#135e21"></path><path d="M900 133L900 0L835 65Z" fill="#197b2b" stroke="#197b2b"></path><path d="M133 0L0 0L90 118Z" fill="#0e4318" stroke="#0e4318"></path></g></svg>